<?xml version="1.0" encoding="UTF-8"?>
<!-- Логотип стейблкоина Rubas и всего приложения -->

<!DOCTYPE svg>
<svg xmlns="http://www.w3.org/2000/svg" width="816px" height="962px">
 <defs>
  <style type="text/css">
    .main {
       fill:#F90236
    }
  </style>
 </defs>
 <g id="l0">
  <metadata id="md"/>
  <path class="main" d="M496.19 695.74l0 -256.7c0,-5.1 -4.16,-9.26 -9.26,-9.26l-86.15 0c-3.15,0 -5.85,1.42 -7.64,4.02l-217.45 316.35c-1.78,2.6 -4.48,4.02 -7.63,4.02l-147.88 0c-3.7,0 -6.87,-2.03 -8.42,-5.4 -1.54,-3.36 -1.02,-7.09 1.4,-9.9l252.73 -293.79c2.41,-2.81 2.94,-6.54 1.4,-9.9 -1.55,-3.37 -4.72,-5.4 -8.42,-5.4l-25.16 0c-64.54,0 -116.85,-52.32 -116.85,-116.86l0 -121.18c0,-5.1 4.16,-9.26 9.26,-9.26l124.78 0c5.1,0 9.26,4.16 9.26,9.26l0 111.92c0,5.11 4.16,9.26 9.26,9.26l168.34 0c32.27,0 58.43,-26.15 58.43,-58.42l0 -79.22c0,-32.27 -26.16,-58.42 -58.43,-58.42l-320.9 0 -116.86 -116.86 522.64 0c64.53,0 116.85,52.32 116.85,116.86l0 130.54c0,32.26 -13.08,61.48 -34.22,82.62 -10.58,10.58 -23.17,19.14 -37.15,25.05 13.98,5.91 26.57,14.47 37.15,25.04 21.14,21.15 34.22,50.36 34.22,82.63l0 282.17c0,5.1 -4.16,9.26 -9.26,9.26l-75.62 0c-32.26,0 -58.42,-26.16 -58.42,-58.43z"/>
 </g>
</svg>
